<svg width="17" height="16" viewBox="0 0 17 16" fill="none" xmlns="http://www.w3.org/2000/svg">
<path d="M8.95518 14.4001C7.68938 14.4001 6.452 14.0247 5.39953 13.3215C4.34705 12.6183 3.52675 11.6187 3.04235 10.4493C2.55795 9.27983 2.43121 7.993 2.67815 6.75152C2.9251 5.51004 3.53464 4.36967 4.4297 3.47462C5.32475 2.57956 6.46512 1.97002 7.7066 1.72307C8.94808 1.47613 10.2349 1.60287 11.4044 2.08727C12.5738 2.57167 13.5733 3.39198 14.2766 4.44445C14.9798 5.49693 15.3552 6.7343 15.3552 8.0001C15.3552 9.69749 14.6809 11.3254 13.4807 12.5256C12.2804 13.7258 10.6526 14.4001 8.95518 14.4001ZM8.95518 2.66677C7.90035 2.66677 6.8692 2.97956 5.99214 3.5656C5.11508 4.15163 4.43149 4.98458 4.02782 5.95912C3.62415 6.93366 3.51854 8.00602 3.72432 9.04058C3.93011 10.0751 4.43806 11.0255 5.18394 11.7713C5.92982 12.5172 6.88013 13.0252 7.9147 13.231C8.94926 13.4367 10.0216 13.3311 10.9962 12.9275C11.9707 12.5238 12.8036 11.8402 13.3897 10.9631C13.9757 10.0861 14.2885 9.05493 14.2885 8.0001C14.2885 6.58561 13.7266 5.22906 12.7264 4.22886C11.7262 3.22867 10.3697 2.66677 8.95518 2.66677Z" fill="#21334F"/>
<path d="M11.6219 10.9331C11.4897 10.9328 11.3624 10.8834 11.2645 10.7945L8.59787 8.39447C8.54263 8.34461 8.49842 8.28373 8.46811 8.21576C8.4378 8.14779 8.42205 8.07423 8.42188 7.9998V5.33314C8.42188 5.19169 8.47807 5.05603 8.57808 4.95601C8.6781 4.856 8.81376 4.7998 8.95521 4.7998C9.09666 4.7998 9.23231 4.856 9.33233 4.95601C9.43235 5.05603 9.48854 5.19169 9.48854 5.33314V7.7598L11.9792 9.9998C12.0608 10.0717 12.1184 10.1668 12.1444 10.2724C12.1703 10.378 12.1634 10.489 12.1245 10.5905C12.0857 10.6921 12.0167 10.7793 11.9268 10.8405C11.837 10.9018 11.7306 10.9341 11.6219 10.9331Z" fill="#21334F"/>
</svg>
