<svg width="72" height="72" viewBox="0 0 72 72" fill="none" xmlns="http://www.w3.org/2000/svg">
<path d="M27.869 68.25C27.602 68.2501 27.3376 68.1967 27.0915 68.0929C26.8454 67.9892 26.6225 67.8372 26.4361 67.646C26.2497 67.4547 26.1035 67.228 26.0061 66.9793C25.9087 66.7307 25.8621 66.465 25.869 66.198L26.064 58.751H21.049C17.227 58.751 14.498 55.601 14.498 51.73V25.593C14.498 21.82 17.227 18.75 21.049 18.75H61.186C65.008 18.75 68.499 21.819 68.499 25.593V51.729C68.499 55.6 65.009 58.75 61.186 58.75H41.762L29.034 67.875C28.6947 68.1191 28.2871 68.2503 27.869 68.25ZM21.051 22.75C19.407 22.75 18.5 23.999 18.5 25.593V51.729C18.5 53.368 19.462 54.75 21.051 54.75H28.119C28.3862 54.7496 28.6508 54.8029 28.897 54.9066C29.1433 55.0103 29.3662 55.1624 29.5526 55.3538C29.739 55.5453 29.8851 55.7722 29.9822 56.0211C30.0794 56.27 30.1255 56.5359 30.118 56.803L29.974 62.28L39.953 55.126C40.293 54.882 40.7 54.751 41.118 54.751H61.186C62.775 54.751 64.499 53.368 64.499 51.73V25.593C64.499 23.999 62.83 22.75 61.186 22.75H21.051Z" fill="#21334F"/>
<path d="M6.68 42.151C6.208 42.151 5.926 41.985 5.545 41.647C4.082 40.352 3.5 38.651 3.5 36.729V10.593C3.5 6.82 6.229 3.75 10.051 3.75H50.188C54.01 3.75 57.501 6.819 57.501 10.593V11.75C57.501 12.2804 57.2903 12.7891 56.9152 13.1642C56.5401 13.5393 56.0314 13.75 55.501 13.75C54.9706 13.75 54.4619 13.5393 54.0868 13.1642C53.7117 12.7891 53.501 12.2804 53.501 11.75V10.593C53.501 8.999 51.832 7.75 50.188 7.75H10.051C8.407 7.75 7.5 8.999 7.5 10.593V36.729C7.5 37.495 7.6 38.124 8.197 38.653C9.024 39.385 9.006 40.651 8.273 41.477C7.877 41.922 7.232 42.151 6.68 42.151Z" fill="#21334F"/>
<path d="M34.1191 31.75H26.1191C25.8539 31.75 25.5996 31.6446 25.412 31.4571C25.2245 31.2696 25.1191 31.0152 25.1191 30.75C25.1191 30.4848 25.2245 30.2304 25.412 30.0429C25.5996 29.8554 25.8539 29.75 26.1191 29.75H34.1191C34.3844 29.75 34.6387 29.8554 34.8262 30.0429C35.0138 30.2304 35.1191 30.4848 35.1191 30.75C35.1191 31.0152 35.0138 31.2696 34.8262 31.4571C34.6387 31.6446 34.3844 31.75 34.1191 31.75ZM48.1191 31.75H38.1191C37.8539 31.75 37.5996 31.6446 37.412 31.4571C37.2245 31.2696 37.1191 31.0152 37.1191 30.75C37.1191 30.4848 37.2245 30.2304 37.412 30.0429C37.5996 29.8554 37.8539 29.75 38.1191 29.75H48.1191C48.3844 29.75 48.6387 29.8554 48.8262 30.0429C49.0138 30.2304 49.1191 30.4848 49.1191 30.75C49.1191 31.0152 49.0138 31.2696 48.8262 31.4571C48.6387 31.6446 48.3844 31.75 48.1191 31.75ZM56.1191 31.75H52.1191C51.8539 31.75 51.5996 31.6446 51.412 31.4571C51.2245 31.2696 51.1191 31.0152 51.1191 30.75C51.1191 30.4848 51.2245 30.2304 51.412 30.0429C51.5996 29.8554 51.8539 29.75 52.1191 29.75H56.1191C56.3844 29.75 56.6387 29.8554 56.8262 30.0429C57.0138 30.2304 57.1191 30.4848 57.1191 30.75C57.1191 31.0152 57.0138 31.2696 56.8262 31.4571C56.6387 31.6446 56.3844 31.75 56.1191 31.75ZM30.1191 36.75H26.1191C25.8539 36.75 25.5996 36.6446 25.412 36.4571C25.2245 36.2696 25.1191 36.0152 25.1191 35.75C25.1191 35.4848 25.2245 35.2304 25.412 35.0429C25.5996 34.8554 25.8539 34.75 26.1191 34.75H30.1191C30.3844 34.75 30.6387 34.8554 30.8262 35.0429C31.0138 35.2304 31.1191 35.4848 31.1191 35.75C31.1191 36.0152 31.0138 36.2696 30.8262 36.4571C30.6387 36.6446 30.3844 36.75 30.1191 36.75ZM42.1191 36.75H34.1191C33.8539 36.75 33.5996 36.6446 33.412 36.4571C33.2245 36.2696 33.1191 36.0152 33.1191 35.75C33.1191 35.4848 33.2245 35.2304 33.412 35.0429C33.5996 34.8554 33.8539 34.75 34.1191 34.75H42.1191C42.3844 34.75 42.6387 34.8554 42.8262 35.0429C43.0138 35.2304 43.1191 35.4848 43.1191 35.75C43.1191 36.0152 43.0138 36.2696 42.8262 36.4571C42.6387 36.6446 42.3844 36.75 42.1191 36.75ZM56.1191 36.75H46.1191C45.8539 36.75 45.5996 36.6446 45.412 36.4571C45.2245 36.2696 45.1191 36.0152 45.1191 35.75C45.1191 35.4848 45.2245 35.2304 45.412 35.0429C45.5996 34.8554 45.8539 34.75 46.1191 34.75H56.1191C56.3844 34.75 56.6387 34.8554 56.8262 35.0429C57.0138 35.2304 57.1191 35.4848 57.1191 35.75C57.1191 36.0152 57.0138 36.2696 56.8262 36.4571C56.6387 36.6446 56.3844 36.75 56.1191 36.75ZM36.1191 42.75H26.1191C25.8539 42.75 25.5996 42.6446 25.412 42.4571C25.2245 42.2696 25.1191 42.0152 25.1191 41.75C25.1191 41.4848 25.2245 41.2304 25.412 41.0429C25.5996 40.8554 25.8539 40.75 26.1191 40.75H36.1191C36.3844 40.75 36.6387 40.8554 36.8262 41.0429C37.0138 41.2304 37.1191 41.4848 37.1191 41.75C37.1191 42.0152 37.0138 42.2696 36.8262 42.4571C36.6387 42.6446 36.3844 42.75 36.1191 42.75ZM50.1191 42.75H40.1191C39.8539 42.75 39.5996 42.6446 39.412 42.4571C39.2245 42.2696 39.1191 42.0152 39.1191 41.75C39.1191 41.4848 39.2245 41.2304 39.412 41.0429C39.5996 40.8554 39.8539 40.75 40.1191 40.75H50.1191C50.3844 40.75 50.6387 40.8554 50.8262 41.0429C51.0138 41.2304 51.1191 41.4848 51.1191 41.75C51.1191 42.0152 51.0138 42.2696 50.8262 42.4571C50.6387 42.6446 50.3844 42.75 50.1191 42.75ZM56.1191 42.75H54.1191C53.8539 42.75 53.5996 42.6446 53.412 42.4571C53.2245 42.2696 53.1191 42.0152 53.1191 41.75C53.1191 41.4848 53.2245 41.2304 53.412 41.0429C53.5996 40.8554 53.8539 40.75 54.1191 40.75H56.1191C56.3844 40.75 56.6387 40.8554 56.8262 41.0429C57.0138 41.2304 57.1191 41.4848 57.1191 41.75C57.1191 42.0152 57.0138 42.2696 56.8262 42.4571C56.6387 42.6446 56.3844 42.75 56.1191 42.75Z" fill="#21334F"/>
<path d="M30.1191 47.75H26.1191C25.8539 47.75 25.5996 47.6446 25.412 47.4571C25.2245 47.2696 25.1191 47.0152 25.1191 46.75C25.1191 46.4848 25.2245 46.2304 25.412 46.0429C25.5996 45.8554 25.8539 45.75 26.1191 45.75H30.1191C30.3844 45.75 30.6387 45.8554 30.8262 46.0429C31.0138 46.2304 31.1191 46.4848 31.1191 46.75C31.1191 47.0152 31.0138 47.2696 30.8262 47.4571C30.6387 47.6446 30.3844 47.75 30.1191 47.75ZM41.1191 47.75H34.1191C33.8539 47.75 33.5996 47.6446 33.412 47.4571C33.2245 47.2696 33.1191 47.0152 33.1191 46.75C33.1191 46.4848 33.2245 46.2304 33.412 46.0429C33.5996 45.8554 33.8539 45.75 34.1191 45.75H41.1191C41.3844 45.75 41.6387 45.8554 41.8262 46.0429C42.0138 46.2304 42.1191 46.4848 42.1191 46.75C42.1191 47.0152 42.0138 47.2696 41.8262 47.4571C41.6387 47.6446 41.3844 47.75 41.1191 47.75Z" fill="#21334F"/>
</svg>
