<svg width="16" height="15" viewBox="0 0 16 15" fill="none" xmlns="http://www.w3.org/2000/svg">
<path d="M1 2.99953H1.071C1.18014 3.42832 1.42903 3.80853 1.77836 4.08009C2.12769 4.35164 2.55754 4.49906 3 4.49906C3.44246 4.49906 3.87231 4.35164 4.22164 4.08009C4.57097 3.80853 4.81986 3.42832 4.929 2.99953H15C15.1326 2.99953 15.2598 2.94685 15.3536 2.85309C15.4473 2.75932 15.5 2.63214 15.5 2.49953C15.5 2.36692 15.4473 2.23975 15.3536 2.14598C15.2598 2.05221 15.1326 1.99953 15 1.99953H4.929C4.81986 1.57074 4.57097 1.19053 4.22164 0.918978C3.87231 0.647423 3.44246 0.5 3 0.5C2.55754 0.5 2.12769 0.647423 1.77836 0.918978C1.42903 1.19053 1.18014 1.57074 1.071 1.99953H1C0.867392 1.99953 0.740215 2.05221 0.646447 2.14598C0.552678 2.23975 0.5 2.36692 0.5 2.49953C0.5 2.63214 0.552678 2.75932 0.646447 2.85309C0.740215 2.94685 0.867392 2.99953 1 2.99953ZM3 1.49953C3.19778 1.49953 3.39112 1.55818 3.55557 1.66806C3.72002 1.77794 3.84819 1.93412 3.92388 2.11685C3.99957 2.29957 4.01937 2.50064 3.98079 2.69462C3.9422 2.8886 3.84696 3.06679 3.70711 3.20664C3.56725 3.34649 3.38907 3.44173 3.19509 3.48032C3.00111 3.5189 2.80004 3.4991 2.61732 3.42341C2.43459 3.34772 2.27841 3.21955 2.16853 3.0551C2.05865 2.89065 2 2.69731 2 2.49953C2 2.23432 2.10536 1.97996 2.29289 1.79243C2.48043 1.60489 2.73478 1.49953 3 1.49953ZM15 6.99953H14.929C14.8199 6.57074 14.571 6.19053 14.2216 5.91898C13.8723 5.64742 13.4425 5.5 13 5.5C12.5575 5.5 12.1277 5.64742 11.7784 5.91898C11.429 6.19053 11.1801 6.57074 11.071 6.99953H1C0.867392 6.99953 0.740215 7.05221 0.646447 7.14598C0.552678 7.23975 0.5 7.36692 0.5 7.49953C0.5 7.63214 0.552678 7.75932 0.646447 7.85309C0.740215 7.94685 0.867392 7.99953 1 7.99953H11.071C11.1801 8.42832 11.429 8.80853 11.7784 9.08009C12.1277 9.35164 12.5575 9.49907 13 9.49907C13.4425 9.49907 13.8723 9.35164 14.2216 9.08009C14.571 8.80853 14.8199 8.42832 14.929 7.99953H15C15.1326 7.99953 15.2598 7.94685 15.3536 7.85309C15.4473 7.75932 15.5 7.63214 15.5 7.49953C15.5 7.36692 15.4473 7.23975 15.3536 7.14598C15.2598 7.05221 15.1326 6.99953 15 6.99953ZM13 8.49953C12.8022 8.49953 12.6089 8.44088 12.4444 8.331C12.28 8.22112 12.1518 8.06494 12.0761 7.88222C12.0004 7.69949 11.9806 7.49842 12.0192 7.30444C12.0578 7.11046 12.153 6.93228 12.2929 6.79243C12.4327 6.65257 12.6109 6.55733 12.8049 6.51875C12.9989 6.48016 13.2 6.49997 13.3827 6.57565C13.5654 6.65134 13.7216 6.77951 13.8315 6.94396C13.9414 7.10841 14 7.30175 14 7.49953C14 7.76475 13.8946 8.0191 13.7071 8.20664C13.5196 8.39418 13.2652 8.49953 13 8.49953ZM15 11.9995H9.929C9.81986 11.5707 9.57097 11.1905 9.22164 10.919C8.87231 10.6474 8.44246 10.5 8 10.5C7.55754 10.5 7.12769 10.6474 6.77836 10.919C6.42903 11.1905 6.18014 11.5707 6.071 11.9995H1C0.867392 11.9995 0.740215 12.0522 0.646447 12.146C0.552678 12.2397 0.5 12.3669 0.5 12.4995C0.5 12.6321 0.552678 12.7593 0.646447 12.8531C0.740215 12.9469 0.867392 12.9995 1 12.9995H6.071C6.18014 13.4283 6.42903 13.8085 6.77836 14.0801C7.12769 14.3516 7.55754 14.4991 8 14.4991C8.44246 14.4991 8.87231 14.3516 9.22164 14.0801C9.57097 13.8085 9.81986 13.4283 9.929 12.9995H15C15.1326 12.9995 15.2598 12.9469 15.3536 12.8531C15.4473 12.7593 15.5 12.6321 15.5 12.4995C15.5 12.3669 15.4473 12.2397 15.3536 12.146C15.2598 12.0522 15.1326 11.9995 15 11.9995ZM8 13.4995C7.80222 13.4995 7.60888 13.4409 7.44443 13.331C7.27998 13.2211 7.15181 13.0649 7.07612 12.8822C7.00043 12.6995 6.98063 12.4984 7.01921 12.3044C7.0578 12.1105 7.15304 11.9323 7.29289 11.7924C7.43275 11.6526 7.61093 11.5573 7.80491 11.5187C7.99889 11.4802 8.19996 11.5 8.38268 11.5757C8.56541 11.6513 8.72159 11.7795 8.83147 11.944C8.94135 12.1084 9 12.3018 9 12.4995C9 12.7647 8.89464 13.0191 8.70711 13.2066C8.51957 13.3942 8.26522 13.4995 8 13.4995Z" fill="#21334F"/>
</svg>
